<svg width="900" height="260" viewBox="0 0 900 260" fill="none" xmlns="http://www.w3.org/2000/svg">
  <rect width="900" height="260" fill="transparent"/>
  <g>
    <path d="M27 40H144L126 74H72V111H126L108 145H72V217H27V40Z" fill="#E22A1E"/>
    <path d="M176 40H315L297 74H221V111H293L275 145H221V183H315V217H176V40Z" fill="#E22A1E"/>
    <path d="M340 40H460L442 74H385V183H460V217H340V40Z" fill="#E22A1E"/>
    <path d="M470 95C500 66 539 48 587 42C637 36 690 45 738 68C766 81 792 99 815 121" stroke="#E22A1E" stroke-width="10" stroke-linecap="round"/>
    <path d="M478 120C510 92 550 76 594 73C646 70 696 85 739 112C761 125 781 141 799 160" stroke="#E22A1E" stroke-width="9" stroke-linecap="round"/>
    <path d="M493 148C523 127 559 114 598 112C641 110 682 121 718 141C737 152 754 165 770 179" stroke="#E22A1E" stroke-width="8" stroke-linecap="round"/>
    <path d="M544 35C515 64 498 101 494 145C490 180 497 212 514 241" stroke="#E22A1E" stroke-width="11" stroke-linecap="round"/>
    <path d="M580 33C557 64 543 102 540 142C537 177 542 209 554 236" stroke="#E22A1E" stroke-width="8" stroke-linecap="round"/>
    <path d="M611 38C594 67 584 102 582 139C580 171 584 200 592 225" stroke="#E22A1E" stroke-width="6" stroke-linecap="round"/>
    <path d="M624 42L887 42L836 69L899 96L838 126L895 156L832 185L882 217H628L666 130L624 42Z" fill="url(#gec-flag)"/>
    <path d="M624 42L887 42L836 69L899 96L838 126L895 156L832 185L882 217H628L666 130L624 42Z" fill="url(#gec-shine)" fill-opacity="0.4"/>
    <path d="M43 243H855" stroke="#4A4A4A" stroke-width="2" opacity="0.35"/>
    <text x="32" y="255" fill="#D9D9D9" font-family="Arial, Helvetica, sans-serif" font-size="36" font-weight="700" letter-spacing="2">
      PETROLEUM DEVELOPMENT COMPANY
    </text>
  </g>
  <defs>
    <linearGradient id="gec-flag" x1="624" y1="42" x2="890" y2="217" gradientUnits="userSpaceOnUse">
      <stop stop-color="#D21616"/>
      <stop offset="0.35" stop-color="#F22B22"/>
      <stop offset="0.62" stop-color="#C71818"/>
      <stop offset="1" stop-color="#F04A43"/>
    </linearGradient>
    <linearGradient id="gec-shine" x1="670" y1="28" x2="796" y2="220" gradientUnits="userSpaceOnUse">
      <stop stop-color="white" stop-opacity="0.75"/>
      <stop offset="0.4" stop-color="white" stop-opacity="0"/>
      <stop offset="0.7" stop-color="white" stop-opacity="0.28"/>
      <stop offset="1" stop-color="white" stop-opacity="0"/>
    </linearGradient>
  </defs>
</svg>
